<?xml version="1.0" standalone="no"?>
<!DOCTYPE svg PUBLIC "-//W3C//DTD SVG 20010904//EN"
 "http://www.w3.org/TR/2001/REC-SVG-20010904/DTD/svg10.dtd">
<svg version="1.0" xmlns="http://www.w3.org/2000/svg"
 width="400.000000pt" height="400.000000pt" viewBox="0 0 400.000000 400.000000"
 preserveAspectRatio="xMidYMid meet">
<metadata>
Created by potrace 1.14, written by Peter Selinger 2001-2017
</metadata>
<g transform="translate(0.000000,400.000000) scale(0.100000,-0.100000)"
fill="#000000" stroke="none">
<path d="M0 2000 l0 -2000 2000 0 2000 0 0 2000 0 2000 -2000 0 -2000 0 0
-2000z m1378 1585 c-3 -3 -9 2 -12 12 -6 14 -5 15 5 6 7 -7 10 -15 7 -18z
m1071 -538 c0 -199 -3 -355 -7 -347 -8 17 -87 21 -111 6 -7 -5 -16 -5 -20 0
-8 12 -41 14 -41 2 0 -5 -4 -7 -9 -4 -5 4 -12 0 -14 -6 -3 -7 -6 21 -6 62 l-1
75 -70 -3 -70 -4 2 -56 c3 -53 2 -57 -21 -58 -13 -1 -27 -8 -32 -15 -7 -11 -9
-11 -9 3 0 13 -6 16 -27 12 -15 -3 -31 -11 -35 -17 -5 -8 -8 -7 -8 4 0 11 -9
16 -32 15 -19 -1 -33 4 -34 12 -1 6 -2 19 -3 28 -1 10 -9 14 -23 12 -17 -2
-22 -9 -20 -25 2 -13 -1 -31 -7 -40 -9 -16 -10 -16 -11 -1 0 13 -6 15 -27 12
-15 -3 -31 -11 -35 -17 -5 -8 -8 -7 -8 3 0 12 -11 15 -52 14 -71 -3 -70 -3
-63 -14 3 -5 1 -10 -4 -10 -6 0 -11 7 -11 16 0 8 -4 13 -9 9 -6 -3 -8 -14 -6
-24 2 -11 -3 -22 -11 -25 -11 -4 -12 -2 -5 12 15 28 -2 48 -23 27 -14 -14 -16
-14 -16 -1 0 10 -7 13 -24 10 -18 -3 -35 5 -63 31 -21 20 -50 38 -65 42 l-28
6 0 303 0 303 23 4 c12 2 250 5 530 5 l507 2 -1 -363z m128 41 c-3 -8 -6 -5
-6 6 -1 11 2 17 5 13 3 -3 4 -12 1 -19z m60 0 c-3 -8 -6 -5 -6 6 -1 11 2 17 5
13 3 -3 4 -12 1 -19z m-1650 -250 c-3 -8 -6 -5 -6 6 -1 11 2 17 5 13 3 -3 4
-12 1 -19z m53 -33 c10 -15 7 -14 -13 4 -15 14 -27 29 -27 33 0 10 16 -5 40
-37z m1107 -7 c-3 -8 -6 -5 -6 6 -1 11 2 17 5 13 3 -3 4 -12 1 -19z m-727 -27
c0 -5 -6 -11 -12 -14 -7 -2 -9 -8 -5 -13 5 -5 14 -2 21 8 11 14 15 13 46 -13
19 -16 30 -29 25 -29 -6 0 -17 6 -24 13 -10 10 -11 8 -5 -7 5 -13 4 -17 -3
-13 -6 4 -14 1 -16 -5 -3 -7 -6 -2 -6 12 -1 18 -4 21 -10 11 -6 -10 -10 -10
-16 -1 -6 9 -10 9 -16 -1 -6 -9 -9 -1 -9 24 0 26 4 37 15 37 8 0 15 -4 15 -9z
m719 -28 c1 19 6 27 19 27 13 0 14 -2 3 -9 -8 -5 -12 -17 -9 -28 4 -14 -1 -19
-17 -21 -19 -1 -21 2 -16 31 l5 32 7 -30 7 -30 1 28z m818 5 c-3 -8 -6 -5 -6
6 -1 11 2 17 5 13 3 -3 4 -12 1 -19z m-1769 -23 c-3 -3 -9 2 -12 12 -6 14 -5
15 5 6 7 -7 10 -15 7 -18z m1769 -17 c-3 -8 -6 -5 -6 6 -1 11 2 17 5 13 3 -3
4 -12 1 -19z m-757 5 c-8 -3 -18 -11 -22 -17 -5 -7 -8 -4 -8 7 0 11 7 17 23
16 15 0 17 -2 7 -6z m-374 -28 c1 -8 -2 -15 -6 -15 -5 0 -8 9 -7 20 1 21 10
18 13 -5z m-399 0 c0 -8 -6 -16 -14 -19 -11 -4 -11 -1 -3 14 13 24 17 25 17 5z
m119 -13 c-17 -16 -18 -16 -5 5 7 12 15 20 18 17 3 -2 -3 -12 -13 -22z m154
24 c0 -2 -7 -9 -15 -16 -13 -11 -14 -10 -9 4 5 14 24 23 24 12z m197 -11 c0
-8 -4 -15 -9 -15 -10 0 -11 14 -1 23 9 10 10 9 10 -8z m54 -8 c-10 -9 -11 -8
-5 6 3 10 9 15 12 12 3 -3 0 -11 -7 -18z m76 8 c0 -8 -4 -15 -9 -15 -10 0 -11
14 -1 23 9 10 10 9 10 -8z m124 -8 c-10 -9 -11 -8 -5 6 3 10 9 15 12 12 3 -3
0 -11 -7 -18z m75 -4 c-10 -10 -19 5 -10 18 6 11 8 11 12 0 2 -7 1 -15 -2 -18z
m-730 5 c3 -4 -1 -5 -10 -4 -8 1 -18 5 -22 8 -3 4 1 5 10 4 8 -1 18 -5 22 -8z
m1494 -38 c-6 -11 -13 -20 -16 -20 -2 0 0 9 6 20 6 11 13 20 16 20 2 0 0 -9
-6 -20z m-1868 -62 c14 -15 22 -28 16 -28 -13 0 -33 25 -53 65 -9 17 -10 21
-3 10 7 -10 25 -32 40 -47z m-352 8 c0 -2 -9 -6 -20 -9 -11 -3 -18 -1 -14 4 5
9 34 13 34 5z m238 -21 c-3 -3 -9 2 -12 12 -6 14 -5 15 5 6 7 -7 10 -15 7 -18z
m2199 -17 c-3 -8 -6 -5 -6 6 -1 11 2 17 5 13 3 -3 4 -12 1 -19z m-989 -111
c24 -5 31 -4 26 5 -4 7 9 3 29 -9 25 -15 37 -18 41 -10 2 7 5 3 5 -7 1 -19 1
-19 24 0 12 10 16 12 10 4 -7 -8 -13 -25 -13 -39 0 -23 0 -24 20 -6 11 10 23
15 27 12 3 -4 1 -7 -6 -7 -7 0 -10 -4 -7 -9 3 -5 -1 -14 -9 -21 -13 -11 -18
-10 -29 6 -8 10 -12 22 -10 25 2 4 -10 12 -26 18 -17 5 -30 8 -30 5 0 -3 -10
2 -22 10 -27 19 -42 21 -32 4 5 -8 2 -9 -12 -4 -35 14 -121 19 -128 7 -4 -6
-16 -11 -26 -11 -10 0 -22 -5 -26 -12 -4 -7 -3 -8 4 -4 7 4 12 3 12 -2 0 -5
-25 -13 -55 -17 -30 -3 -53 -10 -50 -15 7 -11 -20 -31 -30 -22 -5 4 -5 1 0 -7
6 -10 4 -12 -5 -6 -9 5 -11 4 -6 -4 5 -8 12 -9 19 -3 7 5 21 6 32 2 17 -6 15
-8 -15 -15 -60 -15 -62 -15 -51 -1 6 7 8 15 6 18 -12 12 67 68 98 69 27 2 28
2 7 6 -39 7 -44 19 -6 15 21 -2 48 4 74 17 29 15 51 19 74 15 32 -6 32 -6 13
10 -19 16 -18 16 10 3 17 -8 45 -17 63 -20z m-198 -81 c0 -2 -13 -6 -29 -8
-17 -2 -28 -1 -25 4 5 8 54 12 54 4z m383 -38 c3 -10 1 -18 -4 -18 -4 0 -13 8
-18 18 -7 14 -6 19 4 19 7 0 16 -9 18 -19z m29 -26 c-9 -6 -6 -14 12 -31 15
-14 22 -29 19 -39 -4 -10 -2 -13 5 -8 7 4 12 2 12 -3 0 -17 -13 -12 -39 14
-18 19 -19 24 -6 18 12 -4 16 -3 12 4 -4 6 -21 13 -39 17 l-33 7 25 13 c27 15
53 21 32 8z m-544 -29 c-8 -10 -28 -42 -43 -71 -29 -54 -43 -64 -26 -19 16 42
60 107 73 107 7 0 5 -7 -4 -17z m-23 -93 c-9 -16 -20 -30 -25 -30 -14 0 -13 7
6 35 23 35 38 31 19 -5z m635 -15 c0 -5 -5 -3 -10 5 -5 8 -10 20 -10 25 0 6 5
3 10 -5 5 -8 10 -19 10 -25z m-20 -30 c0 -5 -5 -3 -10 5 -5 8 -10 20 -10 25 0
6 5 3 10 -5 5 -8 10 -19 10 -25z m-650 -5 c0 -5 -4 -10 -10 -10 -5 0 -10 5
-10 10 0 6 5 10 10 10 6 0 10 -4 10 -10z m640 -15 c0 4 7 2 15 -5 8 -7 15 -18
15 -24 0 -6 -5 -3 -11 7 -6 9 -14 15 -18 12 -5 -2 -15 3 -22 13 -13 15 -12 16
4 3 9 -7 17 -10 17 -6z m-663 -42 c-3 -10 -5 -4 -5 12 0 17 2 24 5 18 2 -7 2
-21 0 -30z m33 -27 c-5 -15 -14 -24 -20 -21 -6 4 -4 16 6 31 21 31 28 26 14
-10z m659 -40 c-3 -3 -11 5 -18 17 -13 21 -12 21 5 5 10 -10 16 -20 13 -22z
m-652 -16 c-1 -16 -8 -30 -14 -30 -16 0 -16 3 -1 35 15 33 18 32 15 -5z m626
10 c3 -11 1 -18 -4 -14 -5 3 -9 12 -9 20 0 20 7 17 13 -6z m-613 -56 c0 -8
-19 -13 -24 -6 -3 5 1 9 9 9 8 0 15 -2 15 -3z m5 -40 c-12 -24 -15 -25 -15 -8
0 11 5 25 12 32 18 18 20 8 3 -24z m621 -10 c-8 -20 -26 -18 -26 4 0 14 2 15
10 2 8 -12 10 -8 11 15 1 18 3 23 6 12 3 -10 2 -25 -1 -33z m35 -50 c-19 -45
-36 -70 -48 -72 -17 -4 -17 -3 -1 10 22 17 66 119 60 138 -3 11 -1 12 7 4 9
-8 4 -28 -18 -80z m-614 54 c-3 -8 -6 -5 -6 6 -1 11 2 17 5 13 3 -3 4 -12 1
-19z m-117 -14 c0 -28 29 -83 63 -121 17 -19 17 -23 5 -23 -21 0 -88 109 -88
142 0 16 5 28 10 28 6 0 10 -12 10 -26z m67 -46 c-3 -7 -5 -2 -5 12 0 14 2 19
5 13 2 -7 2 -19 0 -25z m595 -19 c-3 -25 -7 -36 -12 -29 -6 10 -9 10 -13 -1
-4 -12 -1 5 6 36 3 11 17 35 20 35 2 0 1 -19 -1 -41z m-512 -98 c-1 -13 -30
34 -30 48 0 9 7 3 15 -13 8 -15 15 -31 15 -35z m448 0 c-26 -32 -33 -32 -23
-2 3 12 11 19 16 16 5 -4 9 -1 9 4 0 6 5 11 11 11 6 0 0 -13 -13 -29z m-388
-75 c0 -3 -27 -17 -60 -32 -34 -15 -82 -42 -108 -61 -52 -37 -62 -40 -62 -18
0 8 5 15 11 15 6 0 30 13 53 29 23 16 69 39 102 50 68 23 64 22 64 17z m476
-18 c18 -6 37 -22 43 -35 6 -13 15 -23 21 -23 10 0 45 -60 42 -72 -1 -5 3 -8
9 -8 5 0 7 -4 4 -10 -3 -5 -1 -10 5 -10 6 0 8 -4 5 -10 -3 -5 -2 -10 3 -10 12
0 63 -140 56 -152 -4 -6 -2 -13 3 -17 6 -3 13 -22 17 -41 l6 -35 -20 40 c-11
22 -18 48 -16 58 2 9 0 17 -5 17 -5 0 -8 3 -7 8 3 18 -80 193 -101 210 -12 10
-12 11 -1 6 8 -4 -1 9 -20 29 -19 20 -48 43 -65 51 -36 19 -25 21 21 4z m-762
-232 c-37 -58 -71 -106 -76 -106 -4 0 -5 -6 -2 -14 3 -8 0 -17 -7 -22 -8 -5
-10 -3 -4 6 5 9 4 11 -4 6 -8 -6 -9 -12 -2 -20 8 -9 1 -32 -23 -80 -22 -44
-36 -61 -40 -51 -3 8 -1 15 4 15 5 0 7 7 4 15 -4 8 -2 15 3 15 5 0 10 11 11
24 3 36 40 116 53 116 7 0 9 3 6 6 -8 9 34 85 43 79 4 -3 7 3 6 13 0 9 5 16
12 15 6 -2 11 1 10 5 -2 4 8 31 22 59 21 42 27 49 38 38 12 -10 3 -30 -54
-119z m180 -338 c4 -16 2 -28 -3 -28 -13 0 -21 39 -19 100 l1 55 7 -50 c4 -27
11 -62 14 -77z m811 112 c3 -6 -1 -7 -9 -4 -18 7 -21 14 -7 14 6 0 13 -4 16
-10z m-865 -60 c-6 -11 -8 -20 -5 -20 3 0 -6 -18 -19 -39 -14 -21 -23 -41 -20
-44 3 -2 -2 -7 -11 -11 -12 -4 -10 4 7 37 13 23 28 45 33 49 6 4 6 8 2 8 -8 0
10 40 19 40 2 0 0 -9 -6 -20z m874 -16 c3 -8 2 -12 -4 -9 -6 3 -10 10 -10 16
0 14 7 11 14 -7z m-1142 -71 c-6 -3 -10 -9 -6 -14 3 -5 0 -9 -6 -9 -6 0 -8 -4
-5 -10 3 -5 1 -10 -5 -10 -7 0 -10 -6 -7 -13 3 -8 -1 -14 -8 -14 -11 0 -11 6
2 31 21 42 35 58 42 50 3 -4 0 -9 -7 -11z m1154 -9 c1 -9 0 -13 -4 -10 -3 4
-7 14 -8 22 -1 9 0 13 4 10 3 -4 7 -14 8 -22z m-1746 0 c0 -8 -19 -13 -24 -6
-3 5 1 9 9 9 8 0 15 -2 15 -3z m925 -35 c-2 -17 -7 -35 -12 -40 -5 -5 -7 8 -5
31 2 22 8 40 12 40 4 0 6 -14 5 -31z m-209 -31 c-9 -12 -16 -19 -16 -15 0 11
24 47 28 42 2 -2 -3 -14 -12 -27z m-159 -14 c-3 -3 -12 -4 -19 -1 -8 3 -5 6 6
6 11 1 17 -2 13 -5z m-352 -24 c3 -6 -1 -7 -9 -4 -18 7 -21 14 -7 14 6 0 13
-4 16 -10z m71 -12 c3 -4 -1 -5 -10 -4 -8 1 -18 5 -22 8 -3 4 1 5 10 4 8 -1
18 -5 22 -8z m405 -21 c-10 -9 -11 -8 -5 6 3 10 9 15 12 12 3 -3 0 -11 -7 -18z
m214 -11 c1 -35 -7 -40 -12 -8 -2 16 3 42 9 42 2 0 3 -16 3 -34z m-571 6 c3
-5 -1 -9 -9 -9 -8 0 -12 4 -9 9 3 4 7 8 9 8 2 0 6 -4 9 -8z m436 -6 c0 -2 -8
-10 -17 -17 -16 -13 -17 -12 -4 4 13 16 21 21 21 13z m-406 -14 c3 -5 -1 -9
-9 -9 -8 0 -12 4 -9 9 3 4 7 8 9 8 2 0 6 -4 9 -8z m62 -45 c4 -3 -4 -4 -16 -2
-30 6 -40 16 -12 12 12 -2 24 -6 28 -10z m487 -2 c-3 -9 -8 -14 -10 -11 -3 3
-2 9 2 15 9 16 15 13 8 -4z m-267 -27 c3 -4 -1 -5 -10 -4 -8 1 -18 5 -22 8 -3
4 1 5 10 4 8 -1 18 -5 22 -8z m134 -34 c0 -8 -19 -13 -24 -6 -3 5 1 9 9 9 8 0
15 -2 15 -3z"/>
<path d="M1766 3351 c-4 -7 -5 -15 -2 -18 9 -9 19 4 14 18 -4 11 -6 11 -12 0z"/>
<path d="M1560 3281 l-33 -28 26 -17 c35 -24 110 -18 115 8 4 19 -41 65 -64
66 -6 0 -26 -13 -44 -29z m71 2 c16 -10 29 -25 29 -35 0 -15 -8 -18 -44 -18
-58 0 -78 22 -45 50 29 24 25 24 60 3z"/>
<path d="M2095 3254 l-30 -25 24 -20 c21 -17 36 -19 129 -17 87 3 107 6 116
21 9 14 6 21 -17 41 -22 19 -38 24 -75 23 -26 -2 -52 -6 -59 -10 -6 -4 -14 -3
-18 3 -10 17 -38 11 -70 -16z m65 6 c9 -6 19 -5 28 2 10 9 18 9 33 0 14 -9 23
-9 38 -1 15 10 23 8 44 -7 15 -10 26 -26 24 -34 -2 -12 -23 -15 -106 -17 -58
-1 -113 3 -124 9 -19 10 -19 11 4 33 27 26 37 29 59 15z"/>
<path d="M1700 3141 c0 -26 4 -29 35 -33 42 -5 45 -3 45 34 0 26 -3 28 -40 28
-37 0 -40 -2 -40 -29z"/>
<path d="M1570 2910 l0 -30 168 0 168 0 0 30 0 30 -168 0 -168 0 0 -30z"/>
<path d="M1975 2817 c-25 -19 -12 -35 25 -29 33 5 37 11 18 30 -15 15 -20 15
-43 -1z"/>
</g>
</svg>
