<?xml version="1.0" standalone="no"?>
<!DOCTYPE svg PUBLIC "-//W3C//DTD SVG 20010904//EN"
 "http://www.w3.org/TR/2001/REC-SVG-20010904/DTD/svg10.dtd">
<svg version="1.0" xmlns="http://www.w3.org/2000/svg"
 width="400.000000pt" height="400.000000pt" viewBox="0 0 400.000000 400.000000"
 preserveAspectRatio="xMidYMid meet">
<metadata>
Created by potrace 1.14, written by Peter Selinger 2001-2017
</metadata>
<g transform="translate(0.000000,400.000000) scale(0.100000,-0.100000)"
fill="#000000" stroke="none">
<path d="M0 2000 l0 -2000 2000 0 2000 0 0 2000 0 2000 -500 0 -500 0 0 -300
0 -300 100 0 100 0 0 -200 0 -200 78 0 c126 0 122 3 122 -106 l0 -94 -100 0
-100 0 0 -100 0 -100 -100 0 -100 0 0 -100 0 -100 100 0 100 0 0 -230 0 -230
79 0 80 0 4 -52 c2 -41 4 -34 6 32 l3 85 13 -95 c15 -105 24 -897 11 -918 -4
-7 -15 -12 -24 -12 -11 0 -13 3 -5 8 10 6 -321 8 -442 2 l-50 -3 43 -4 c23 -2
42 -9 42 -15 0 -7 -26 -8 -79 -3 l-80 7 2 -87 2 -86 -178 3 -179 3 7 77 c5 50
3 78 -3 78 -5 0 -13 -36 -17 -80 -4 -44 -11 -80 -15 -80 -5 0 -10 38 -12 85
l-3 85 85 2 85 2 -90 6 -90 6 93 2 c76 2 92 -1 92 -13 0 -8 4 -15 9 -15 6 0 9
9 8 20 -1 20 -8 20 -299 20 l-298 0 0 400 0 400 -100 0 -100 0 -1 383 c-1 210
-2 387 -4 392 -1 6 -3 14 -3 19 -1 5 -9 3 -17 -4 -10 -9 -15 -9 -15 -1 0 7
-28 11 -80 11 l-80 0 0 100 0 100 300 0 300 0 0 200 0 200 100 0 100 0 0 400
0 400 -1200 0 -1200 0 0 -2000z m1400 1300 c0 -65 4 -100 11 -100 7 0 9 29 7
84 -2 46 0 82 5 79 4 -2 7 -40 7 -84 l0 -79 85 0 85 0 0 -200 0 -200 -152 1
c-84 0 -173 4 -197 7 l-44 7 -4 83 c-3 60 -1 82 8 82 7 0 9 3 5 8 -4 4 -53 9
-109 12 l-102 5 -3 198 -2 197 200 0 200 0 0 -100z m200 80 c0 -6 -33 -10 -80
-10 -47 0 -80 4 -80 10 0 6 33 10 80 10 47 0 80 -4 80 -10z m187 -947 c-2 -21
-4 -4 -4 37 0 41 2 58 4 38 2 -21 2 -55 0 -75z m1071 -1485 c-3 -7 -11 -13
-18 -13 -7 0 -15 6 -17 13 -3 7 4 12 17 12 13 0 20 -5 18 -12z"/>
<path d="M1268 2983 c7 -3 16 -2 19 1 4 3 -2 6 -13 5 -11 0 -14 -3 -6 -6z"/>
<path d="M1325 2983 c16 -3 33 -10 37 -16 5 -8 8 -6 8 6 0 13 -8 17 -37 16
-35 -2 -35 -2 -8 -6z"/>
<path d="M1386 2977 c3 -10 9 -15 12 -12 3 3 0 11 -7 18 -10 9 -11 8 -5 -6z"/>
<path d="M3218 2973 c12 -2 32 -2 45 0 12 2 2 4 -23 4 -25 0 -35 -2 -22 -4z"/>
<path d="M3218 1813 c12 -2 32 -2 45 0 12 2 2 4 -23 4 -25 0 -35 -2 -22 -4z"/>
<path d="M3318 1813 c12 -2 30 -2 40 0 9 3 -1 5 -23 4 -22 0 -30 -2 -17 -4z"/>
</g>
</svg>
