<?xml version="1.0" standalone="no"?>
<!DOCTYPE svg PUBLIC "-//W3C//DTD SVG 20010904//EN"
 "http://www.w3.org/TR/2001/REC-SVG-20010904/DTD/svg10.dtd">
<svg version="1.0" xmlns="http://www.w3.org/2000/svg"
 width="460.000000pt" height="460.000000pt" viewBox="0 0 460.000000 460.000000"
 preserveAspectRatio="xMidYMid meet">
<metadata>
Created by potrace 1.11, written by Peter Selinger 2001-2013
</metadata>
<g transform="translate(0.000000,460.000000) scale(0.100000,-0.100000)"
fill="#000000" stroke="none">
<path d="M1 3988 c1 -337 3 -605 6 -595 2 9 11 17 19 17 8 0 14 7 14 16 0 8 5
12 11 9 13 -8 40 26 32 40 -4 5 -3 7 2 3 4 -4 15 3 25 15 16 20 20 20 44 8 29
-16 32 -28 11 -55 -11 -15 -15 -16 -16 -5 0 8 -3 6 -8 -6 -4 -11 -18 -22 -31
-25 -14 -3 -24 -14 -27 -28 -3 -25 -42 -82 -55 -82 -4 0 -8 -11 -8 -25 0 -14
-4 -25 -9 -25 -6 0 -10 -198 -11 -496 -1 -465 0 -497 17 -510 17 -13 17 -13 1
-14 -17 0 -18 -55 -18 -1016 0 -604 4 -1013 9 -1010 5 3 7 15 4 27 -4 12 0 25
8 30 19 12 32 11 24 -1 -3 -6 6 -15 22 -21 22 -8 30 -7 39 5 6 9 25 16 42 16
32 0 33 -2 16 -47 -4 -10 -6 -28 -5 -39 2 -16 -5 -23 -23 -28 -14 -3 -30 -15
-36 -25 -8 -16 -15 -18 -47 -10 -21 5 -41 9 -45 9 -5 0 -8 -27 -8 -60 l0 -60
1721 0 c1697 1 1721 1 1742 20 27 26 57 26 64 0 5 -20 14 -20 539 -20 l534 0
0 690 c0 650 -1 690 -17 691 -29 3 -46 1 -80 -6 -20 -5 -33 -4 -33 2 0 16 77
46 104 41 l26 -5 0 1593 0 1594 -599 0 -600 0 11 -32 c5 -18 16 -58 23 -88 23
-91 37 -144 45 -165 5 -11 15 -49 24 -85 8 -36 25 -96 36 -135 11 -38 24 -90
29 -115 5 -25 16 -65 24 -90 8 -25 22 -72 31 -105 43 -154 48 -168 56 -155 5
8 10 -3 15 -30 4 -26 10 -38 15 -30 12 19 17 -1 16 -62 -1 -32 3 -54 8 -50 5
3 6 -2 3 -12 -4 -10 -2 -27 4 -38 6 -11 12 -56 14 -99 3 -63 1 -81 -11 -86 -7
-3 -14 -15 -14 -27 0 -20 -20 -61 -20 -41 0 5 -7 0 -15 -12 -8 -11 -26 -24
-40 -27 -28 -7 -32 -19 -12 -38 11 -10 11 -18 1 -47 -7 -20 -13 -44 -14 -53 0
-11 -8 -18 -20 -18 -13 0 -18 -5 -14 -15 4 -8 10 -13 14 -10 4 3 10 -2 14 -10
3 -8 1 -17 -4 -20 -6 -4 -10 -1 -10 4 0 6 -7 11 -15 11 -17 0 -20 -17 -4 -22
25 -8 -57 -52 -106 -56 l-50 -4 0 -39 c-1 -21 2 -39 6 -39 4 0 15 -3 25 -7 13
-5 15 -3 9 7 -6 10 -4 12 9 7 10 -4 20 -7 22 -7 3 0 2 -4 -1 -10 -4 -6 8 -10
29 -10 33 0 35 -2 33 -30 -1 -19 -8 -30 -17 -30 -12 -1 -12 -3 3 -14 9 -7 17
-18 17 -23 0 -6 9 -13 20 -16 13 -3 20 0 20 9 0 8 5 14 11 14 7 0 8 -11 4 -30
-4 -19 -2 -36 5 -45 7 -8 9 -22 6 -31 -3 -8 0 -22 8 -30 19 -19 26 -18 27 4 1
9 6 0 13 -20 6 -20 26 -53 44 -73 17 -20 32 -44 32 -52 0 -8 5 -11 10 -8 6 3
13 -2 16 -12 3 -10 14 -40 24 -68 22 -61 35 -111 100 -385 28 -118 55 -231 60
-250 5 -19 12 -53 15 -75 4 -22 10 -44 15 -50 4 -5 10 -32 14 -60 6 -45 103
-448 109 -449 20 -6 117 -62 117 -68 0 -13 -34 -9 -56 6 -12 8 -51 15 -99 17
-81 3 -129 15 -119 30 3 5 -2 9 -11 9 -8 0 -18 -7 -22 -16 -3 -9 -9 -12 -12
-7 -3 5 -51 27 -105 48 -75 28 -103 35 -116 27 -11 -6 -22 -7 -33 0 -19 10
-283 14 -519 7 -121 -3 -147 -6 -145 -18 3 -22 -108 -15 -142 9 -14 10 -41 21
-58 24 -31 5 -33 3 -33 -21 0 -32 -12 -23 -38 27 -9 19 -26 38 -37 44 -11 6
-22 14 -25 17 -3 3 -13 8 -22 12 -15 5 -18 0 -20 -26 -2 -34 -4 -67 -7 -81 0
-4 -10 2 -20 15 -23 29 -32 22 -56 -43 -10 -27 -20 -48 -24 -48 -9 1 -41 26
-41 33 0 3 -5 18 -11 34 -6 15 -10 28 -8 28 1 0 -13 24 -30 53 -17 29 -33 65
-37 80 -3 15 -9 36 -14 47 -10 24 -45 153 -66 245 -21 93 -24 139 -12 185 15
58 15 272 0 287 -7 7 -12 26 -12 43 0 17 -7 40 -15 52 -14 20 -22 55 -28 118
-1 11 -8 26 -14 33 -7 7 -13 20 -13 27 0 7 -7 21 -16 29 -14 14 -21 37 -26 84
-1 6 -5 12 -10 12 -5 0 -6 5 -3 10 4 6 2 17 -5 24 -6 8 -8 26 -4 40 4 15 1 32
-6 41 -7 8 -10 20 -7 27 7 19 -10 58 -25 58 -8 0 -19 14 -25 30 -7 19 -18 30
-30 30 -11 0 -31 12 -45 28 -21 22 -27 41 -33 102 -6 70 -48 201 -66 208 -4 2
-15 28 -25 58 -9 30 -20 54 -24 54 -4 0 -10 9 -13 21 -3 12 -10 18 -16 15 -5
-4 -12 -2 -15 3 -7 11 -119 26 -166 22 -19 -2 -53 -12 -74 -22 -22 -10 -45
-19 -51 -19 -25 0 -73 31 -78 50 -3 12 -17 22 -35 26 -30 6 -32 15 -23 77 1 4
9 7 19 7 9 0 25 7 35 15 11 7 25 11 33 8 15 -5 54 23 54 39 0 4 -6 8 -14 8 -7
0 -26 25 -41 55 -14 30 -33 55 -40 55 -8 0 -32 9 -54 21 -37 19 -42 19 -70 5
-38 -20 -75 -20 -91 -1 -7 9 -11 37 -8 74 4 77 -16 104 -74 97 -21 -2 -38 -1
-38 3 0 19 64 81 78 76 11 -4 13 1 8 20 -5 19 -1 28 20 41 24 16 24 18 7 28
-10 5 -24 15 -31 23 -7 7 -24 10 -40 7 -21 -4 -29 -1 -37 18 -9 20 -16 23 -53
20 -39 -3 -55 8 -32 23 17 11 11 25 -11 25 -12 0 -32 -11 -45 -25 -13 -14 -30
-25 -38 -25 -21 0 -30 -19 -12 -26 9 -3 16 -11 16 -16 0 -10 -19 -8 -65 7 -17
5 -24 -1 -39 -34 -18 -43 -50 -69 -61 -51 -3 5 -22 10 -42 10 -31 0 -35 3 -30
20 4 17 2 20 -14 15 -14 -5 -23 2 -36 30 -11 22 -22 34 -31 30 -7 -3 -18 -5
-23 -5 -6 0 -7 -9 -4 -20 5 -16 2 -20 -19 -20 -14 0 -26 -4 -26 -8 0 -4 -11
-9 -24 -10 -25 -2 -54 23 -41 36 4 4 10 1 12 -5 6 -18 33 -16 33 2 0 8 7 15
15 15 8 0 15 7 15 15 0 9 11 21 25 27 14 6 25 15 25 19 0 4 2 14 5 21 3 8 -4
25 -15 38 -27 31 -22 52 15 64 17 5 37 11 45 14 8 3 19 4 24 3 4 -1 13 2 20 8
6 5 38 11 71 14 33 2 68 8 77 12 12 5 20 2 23 -7 4 -9 15 -13 28 -11 12 2 48
0 79 -5 32 -5 55 -5 52 0 -10 17 9 7 27 -13 10 -11 22 -18 28 -15 16 10 40 -5
34 -22 -5 -12 -2 -14 13 -7 40 17 87 18 99 2 7 -9 31 -18 58 -21 25 -2 50 -7
56 -11 6 -3 11 -1 11 5 0 7 6 8 19 1 10 -6 21 -7 25 -3 4 3 11 0 15 -7 11 -17
32 -5 25 14 -4 10 0 12 16 8 12 -3 24 -12 27 -19 3 -8 13 -14 23 -14 10 0 20
-3 22 -7 4 -10 65 -53 74 -53 3 0 34 -19 67 -42 74 -51 182 -157 192 -187 3
-11 10 -21 14 -21 5 0 12 -15 16 -32 9 -39 6 -31 33 -91 12 -27 22 -60 22 -73
0 -13 4 -32 9 -42 5 -9 14 -35 19 -57 28 -107 34 -125 42 -125 6 0 10 6 10 13
0 9 2 9 8 -1 6 -8 22 -10 55 -6 26 4 44 11 41 15 -3 5 19 6 48 4 29 -3 56 -11
60 -18 6 -9 8 -9 8 1 0 6 5 12 10 12 6 0 10 -7 10 -15 0 -8 6 -15 14 -15 9 0
19 -20 28 -52 l13 -53 6 35 c3 19 2 39 -2 44 -4 5 -5 14 -3 20 2 6 -3 65 -11
131 -9 66 -20 152 -25 190 -5 39 -12 84 -16 100 -5 22 -3 27 4 20 6 -6 18 -60
27 -120 9 -61 22 -122 30 -137 8 -14 15 -36 15 -49 0 -36 34 -129 47 -129 6 0
29 -10 49 -22 38 -23 48 -25 144 -33 38 -3 49 -2 35 4 -18 9 -17 10 10 11 17
1 24 4 17 7 -6 2 -10 9 -7 14 4 5 -1 6 -10 3 -11 -5 -18 0 -22 14 -3 12 -14
24 -24 27 -10 4 -19 15 -19 26 0 10 -6 19 -14 19 -25 0 -36 27 -47 111 -6 46
-15 91 -20 101 -5 11 -3 20 7 28 10 9 11 16 4 25 -6 7 -10 17 -9 21 1 5 0 11
-1 14 -1 3 -3 15 -4 28 -2 18 2 22 26 22 39 0 44 21 14 65 -14 21 -26 42 -26
46 0 15 47 21 68 10 37 -20 55 -14 48 14 -4 15 -2 25 5 25 6 0 17 7 26 16 10
10 25 13 43 9 30 -7 56 15 46 40 -8 22 29 37 80 31 45 -5 45 -4 40 22 -3 15
-7 38 -10 52 -2 14 -7 43 -11 65 -10 59 -53 261 -70 325 -8 30 -19 82 -26 115
-6 33 -15 77 -20 98 l-10 37 -1354 0 -1355 0 1 -612z m529 -22 c0 -11 -33 -36
-41 -31 -15 10 -10 23 9 28 26 7 32 7 32 3z m-90 -56 c0 -5 -4 -10 -10 -10 -5
0 -10 5 -10 10 0 6 5 10 10 10 6 0 10 -4 10 -10z m247 -160 c-1 -8 -13 -20
-27 -27 -21 -10 -26 -10 -28 2 -2 7 -15 15 -30 17 l-27 3 33 15 c17 8 32 21
32 28 0 9 7 8 25 -5 14 -10 24 -25 22 -33z m-397 10 c-20 -12 -33 -1 -19 16 9
11 15 12 23 4 8 -8 7 -13 -4 -20z m265 11 c3 -5 1 -12 -5 -16 -5 -3 -10 1 -10
9 0 18 6 21 15 7z m-448 -17 c-3 -3 -12 -4 -19 -1 -8 3 -5 6 6 6 11 1 17 -2
13 -5z m53 -14 c0 -5 15 -10 33 -11 17 -1 43 -5 57 -9 23 -7 22 -8 -11 -9 -37
-1 -97 15 -113 30 -6 5 -1 9 12 9 12 0 22 -4 22 -10z m403 -65 c-5 -13 -23
-22 -23 -11 0 15 14 35 21 31 4 -3 6 -12 2 -20z m457 -5 c0 -5 -2 -10 -4 -10
-3 0 -8 5 -11 10 -3 6 -1 10 4 10 6 0 11 -4 11 -10z m-50 -60 c0 -5 -4 -10 -9
-10 -5 0 -18 -3 -28 -6 -16 -6 -16 -5 2 9 23 19 35 21 35 7z m-255 -10 c3 -5
-1 -10 -9 -10 -9 0 -16 5 -16 10 0 6 4 10 9 10 6 0 13 -4 16 -10z m175 -15
c-7 -9 -15 -13 -17 -11 -7 7 7 26 19 26 6 0 6 -6 -2 -15z m-618 -59 c0 -12 1
-28 2 -37 1 -9 -3 -16 -9 -15 -5 0 -9 13 -7 29 2 19 -1 27 -13 27 -9 0 -14 4
-11 8 10 17 36 8 38 -12z m38 -31 c10 -12 10 -15 -4 -15 -9 0 -16 7 -16 15 0
8 2 15 4 15 2 0 9 -7 16 -15z m3294 -651 c30 -11 8 -19 -41 -15 -48 5 -48 5
-13 12 19 3 36 7 37 8 1 0 8 -2 17 -5z m-29 -44 c3 -6 -6 -15 -20 -20 -35 -13
-35 -13 -35 10 0 15 7 20 24 20 14 0 28 -5 31 -10z m122 -272 c-3 -7 -5 -2 -5
12 0 14 2 19 5 13 2 -7 2 -19 0 -25z m-3520 -68 c23 -44 40 -80 38 -80 -1 0
-16 7 -31 15 -18 9 -42 12 -66 9 l-37 -6 9 28 c6 16 15 48 20 72 6 23 14 42
18 42 4 0 26 -36 49 -80z m1239 -86 c52 -22 84 -85 36 -69 -10 2 -40 7 -67 11
-27 3 -53 8 -57 10 -11 7 -10 32 3 55 11 21 20 20 85 -7z m-1302 -146 c9 -31
21 -60 26 -63 6 -3 10 -15 10 -26 0 -10 4 -19 9 -19 5 0 11 -10 14 -22 5 -18
-1 -15 -27 15 -30 34 -66 132 -66 179 0 25 18 -9 34 -64z m-50 36 c4 -9 3 -20
0 -23 -4 -3 -9 0 -11 7 -3 6 -11 12 -19 12 -8 0 -14 5 -14 10 0 17 37 11 44
-6z m146 -334 c0 -5 -2 -10 -4 -10 -3 0 -8 5 -11 10 -3 6 -1 10 4 10 6 0 11
-4 11 -10z m4004 -156 c42 -9 89 -22 104 -30 15 -8 33 -14 40 -14 6 0 12 -4
12 -8 0 -5 12 -13 28 -20 25 -11 25 -11 2 -6 -84 18 -208 52 -227 62 -12 7
-31 12 -42 12 -11 0 -23 5 -26 10 -9 14 21 12 109 -6z m-144 -255 c0 -5 -7 -9
-15 -9 -15 0 -20 12 -9 23 8 8 24 -1 24 -14z m295 -199 c0 -7 -12 -22 -27 -33
-20 -15 -35 -18 -62 -13 -35 7 -36 7 -20 31 21 32 109 44 109 15z m90 -40 c-3
-5 -18 -10 -33 -10 -21 0 -24 2 -12 10 20 13 53 13 45 0z m-237 -16 c34 -10
26 -20 -18 -21 -29 -2 -40 2 -40 13 0 15 20 18 58 8z m-3348 -338 c0 -2 -7 -6
-15 -10 -8 -3 -15 -1 -15 4 0 6 7 10 15 10 8 0 15 -2 15 -4z m3490 -60 c0 -11
-19 -15 -25 -6 -3 5 1 10 9 10 9 0 16 -2 16 -4z m25 -34 c-3 -3 -11 0 -18 7
-9 10 -8 11 6 5 10 -3 15 -9 12 -12z m55 -53 c0 -6 -4 -7 -10 -4 -5 3 -10 11
-10 16 0 6 5 7 10 4 6 -3 10 -11 10 -16z m-4175 -379 c-3 -5 -16 -10 -28 -10
-18 0 -19 2 -7 10 20 13 43 13 35 0z"/>
<path d="M685 4019 c-4 -6 -5 -12 -2 -15 2 -3 7 2 10 11 7 17 1 20 -8 4z"/>
<path d="M632 3974 c-7 -8 -8 -14 -2 -14 5 0 10 -10 11 -22 0 -22 1 -22 8 -3
5 12 4 23 -2 26 -5 4 -1 9 9 11 15 3 16 5 4 10 -8 3 -21 -1 -28 -8z"/>
<path d="M920 3970 c0 -5 5 -10 10 -10 6 0 10 5 10 10 0 6 -4 10 -10 10 -5 0
-10 -4 -10 -10z"/>
<path d="M766 3962 c-4 -7 -4 -17 0 -23 3 -6 1 -15 -6 -19 -7 -4 -10 -13 -6
-19 8 -13 46 7 46 24 0 21 -26 49 -34 37z"/>
<path d="M696 3895 c-3 -8 -1 -15 4 -15 6 0 10 7 10 15 0 8 -2 15 -4 15 -2 0
-6 -7 -10 -15z"/>
<path d="M1110 3901 c0 -6 5 -13 10 -16 6 -3 10 1 10 9 0 9 -4 16 -10 16 -5 0
-10 -4 -10 -9z"/>
<path d="M1490 3895 c14 -16 40 -20 40 -6 0 9 -24 21 -42 21 -6 0 -6 -6 2 -15z"/>
<path d="M766 3841 c-4 -6 -4 -15 -1 -21 3 -5 1 -10 -5 -10 -6 0 -8 -4 -5 -10
3 -5 11 -10 17 -10 6 0 8 3 5 7 -4 3 -2 12 5 20 8 10 8 17 1 24 -8 8 -13 7
-17 0z"/>
<path d="M1680 3632 c0 -12 23 -32 37 -32 7 0 13 5 13 10 0 6 -7 10 -15 10 -8
0 -15 5 -15 10 0 6 -4 10 -10 10 -5 0 -10 -4 -10 -8z"/>
<path d="M1745 3590 c-3 -5 -15 -10 -26 -10 -21 0 -27 -38 -8 -57 13 -13 15
-69 5 -140 -7 -48 -5 -54 22 -82 16 -17 33 -31 38 -31 5 0 17 -9 27 -20 9 -11
23 -17 30 -14 8 3 20 -2 27 -11 7 -8 21 -15 32 -15 10 0 17 -4 13 -9 -3 -5 -1
-12 5 -16 6 -4 10 7 11 27 2 54 -3 93 -11 98 -4 3 -11 32 -15 65 -4 33 -12 68
-17 79 -7 13 -6 21 2 26 7 4 -7 10 -34 14 -47 7 -54 14 -35 33 8 8 6 14 -9 22
-11 6 -24 20 -27 31 -7 22 -20 26 -30 10z"/>
<path d="M105 3441 c-3 -5 -1 -12 5 -16 5 -3 10 1 10 9 0 18 -6 21 -15 7z"/>
<path d="M2763 3130 c-27 -11 -28 -16 -9 -36 29 -29 59 -11 48 29 -5 19 -8 20
-39 7z"/>
<path d="M2820 3085 c0 -16 16 -20 24 -6 3 5 -1 11 -9 15 -9 3 -15 0 -15 -9z"/>
<path d="M2876 3065 c-3 -8 -1 -15 4 -15 13 0 22 18 11 24 -5 3 -11 -1 -15 -9z"/>
<path d="M2103 2981 c-29 -36 -27 -84 4 -111 28 -24 33 -25 33 -5 0 9 12 18
30 21 16 4 32 14 35 24 6 20 -3 50 -16 50 -12 0 -11 -14 2 -27 8 -8 8 -13 0
-17 -6 -4 -11 0 -11 11 0 15 -2 16 -10 3 -16 -25 -13 10 4 42 9 16 11 30 5 33
-5 4 -9 0 -9 -7 0 -8 -3 -9 -8 -3 -14 19 -37 14 -59 -14z"/>
<path d="M2190 2860 c1 -15 31 -41 42 -37 8 3 9 6 1 6 -6 1 -9 10 -6 20 4 15
0 20 -16 18 -12 -1 -21 -4 -21 -7z"/>
<path d="M2160 2840 c-20 -12 -10 -19 14 -10 11 3 15 9 10 13 -6 3 -16 2 -24
-3z"/>
<path d="M2178 2802 c-3 -35 3 -58 24 -99 20 -37 21 -47 11 -84 -9 -36 -9 -47
5 -67 12 -19 13 -27 4 -30 -13 -4 -16 -38 -4 -46 5 -3 7 -21 6 -40 -3 -30 0
-36 16 -36 10 0 30 15 44 33 30 39 32 47 11 47 -10 0 -15 10 -15 33 0 18 -7
43 -16 55 -15 22 -12 42 7 42 5 0 14 -11 19 -25 5 -14 12 -25 15 -25 10 0 0
48 -15 64 -7 10 -17 36 -21 59 -15 80 -32 116 -61 126 -23 8 -28 7 -30 -7z
m73 -305 c-10 -9 -11 -8 -5 6 3 10 9 15 12 12 3 -3 0 -11 -7 -18z"/>
<path d="M2397 2764 c-3 -6 -2 -28 3 -50 5 -21 10 -57 10 -79 0 -27 3 -36 9
-26 6 9 9 -12 10 -59 0 -40 5 -87 10 -104 5 -17 12 -56 15 -86 4 -30 13 -89
21 -130 17 -87 21 -110 35 -203 5 -37 12 -72 15 -76 3 -5 10 -44 16 -87 5 -44
22 -142 36 -219 14 -77 30 -165 34 -195 18 -119 37 -226 43 -240 8 -19 80 -52
85 -38 2 5 -2 29 -9 53 -7 24 -9 48 -5 55 4 6 1 17 -5 25 -7 8 -9 15 -5 15 4
0 1 10 -7 23 -8 12 -20 63 -27 112 -8 50 -24 135 -38 190 -13 55 -33 145 -44
200 -10 55 -25 132 -34 170 -8 39 -20 95 -25 125 -5 30 -16 84 -24 120 -7 36
-28 134 -45 219 -17 85 -34 158 -37 162 -2 4 -7 27 -10 51 -8 54 -19 84 -27
72z"/>
<path d="M3498 2703 c7 -3 16 -2 19 1 4 3 -2 6 -13 5 -11 0 -14 -3 -6 -6z"/>
<path d="M3570 2590 c0 -5 5 -10 10 -10 6 0 10 5 10 10 0 6 -4 10 -10 10 -5 0
-10 -4 -10 -10z"/>
<path d="M2225 2380 c4 -6 11 -8 16 -5 14 9 11 15 -7 15 -8 0 -12 -5 -9 -10z"/>
<path d="M2420 1241 c0 -10 79 -81 91 -81 4 0 11 -9 14 -20 8 -25 25 -26 25
-2 0 21 -93 112 -115 112 -8 0 -15 -4 -15 -9z"/>
</g>
</svg>
